<mxfile host="Electron" agent="Mozilla/5.0 (Windows NT 10.0; Win64; x64) AppleWebKit/537.36 (KHTML, like Gecko) draw.io/28.0.4 Chrome/138.0.7204.97 Electron/37.2.1 Safari/537.36" version="28.0.4">
  <diagram name="페이지-1" id="eR1372N3UgXbR_scT18N">
    <mxGraphModel dx="1042" dy="722" grid="1" gridSize="10" guides="1" tooltips="1" connect="1" arrows="1" fold="1" page="1" pageScale="1" pageWidth="827" pageHeight="1169" math="0" shadow="0">
      <root>
        <mxCell id="0" />
        <mxCell id="1" parent="0" />
        <mxCell id="S7LjPsqsbYEkWPQuBM5x-18" value="" style="edgeStyle=orthogonalEdgeStyle;rounded=0;orthogonalLoop=1;jettySize=auto;html=1;" edge="1" parent="1" source="S7LjPsqsbYEkWPQuBM5x-13" target="S7LjPsqsbYEkWPQuBM5x-17">
          <mxGeometry relative="1" as="geometry" />
        </mxCell>
        <mxCell id="S7LjPsqsbYEkWPQuBM5x-13" value="시작" style="ellipse;whiteSpace=wrap;html=1;aspect=fixed;" vertex="1" parent="1">
          <mxGeometry x="80" y="40" width="80" height="80" as="geometry" />
        </mxCell>
        <mxCell id="S7LjPsqsbYEkWPQuBM5x-20" value="" style="edgeStyle=orthogonalEdgeStyle;rounded=0;orthogonalLoop=1;jettySize=auto;html=1;" edge="1" parent="1" source="S7LjPsqsbYEkWPQuBM5x-17" target="S7LjPsqsbYEkWPQuBM5x-19">
          <mxGeometry relative="1" as="geometry" />
        </mxCell>
        <mxCell id="S7LjPsqsbYEkWPQuBM5x-17" value="사용자 이름 작성" style="ellipse;whiteSpace=wrap;html=1;aspect=fixed;" vertex="1" parent="1">
          <mxGeometry x="80" y="200" width="80" height="80" as="geometry" />
        </mxCell>
        <mxCell id="S7LjPsqsbYEkWPQuBM5x-19" value="대기" style="whiteSpace=wrap;html=1;" vertex="1" parent="1">
          <mxGeometry x="60" y="370" width="120" height="60" as="geometry" />
        </mxCell>
        <mxCell id="S7LjPsqsbYEkWPQuBM5x-23" value="" style="edgeStyle=orthogonalEdgeStyle;rounded=0;orthogonalLoop=1;jettySize=auto;html=1;" edge="1" parent="1" source="S7LjPsqsbYEkWPQuBM5x-21" target="S7LjPsqsbYEkWPQuBM5x-22">
          <mxGeometry relative="1" as="geometry" />
        </mxCell>
        <mxCell id="S7LjPsqsbYEkWPQuBM5x-21" value="메뉴 입력 버튼 클릭" style="whiteSpace=wrap;html=1;aspect=fixed;" vertex="1" parent="1">
          <mxGeometry x="460" y="40" width="80" height="80" as="geometry" />
        </mxCell>
        <mxCell id="S7LjPsqsbYEkWPQuBM5x-25" value="1번 모험" style="edgeStyle=orthogonalEdgeStyle;rounded=0;orthogonalLoop=1;jettySize=auto;html=1;" edge="1" parent="1" source="S7LjPsqsbYEkWPQuBM5x-22" target="S7LjPsqsbYEkWPQuBM5x-24">
          <mxGeometry relative="1" as="geometry" />
        </mxCell>
        <mxCell id="S7LjPsqsbYEkWPQuBM5x-29" value="2. 휴식" style="edgeStyle=orthogonalEdgeStyle;rounded=0;orthogonalLoop=1;jettySize=auto;html=1;" edge="1" parent="1" source="S7LjPsqsbYEkWPQuBM5x-22" target="S7LjPsqsbYEkWPQuBM5x-28">
          <mxGeometry relative="1" as="geometry" />
        </mxCell>
        <mxCell id="S7LjPsqsbYEkWPQuBM5x-31" value="" style="edgeStyle=orthogonalEdgeStyle;rounded=0;orthogonalLoop=1;jettySize=auto;html=1;" edge="1" parent="1" source="S7LjPsqsbYEkWPQuBM5x-22" target="S7LjPsqsbYEkWPQuBM5x-30">
          <mxGeometry relative="1" as="geometry" />
        </mxCell>
        <mxCell id="S7LjPsqsbYEkWPQuBM5x-32" value="3. 종료" style="edgeStyle=orthogonalEdgeStyle;rounded=0;orthogonalLoop=1;jettySize=auto;html=1;" edge="1" parent="1" source="S7LjPsqsbYEkWPQuBM5x-22" target="S7LjPsqsbYEkWPQuBM5x-30">
          <mxGeometry relative="1" as="geometry" />
        </mxCell>
        <mxCell id="S7LjPsqsbYEkWPQuBM5x-22" value="몇번인가" style="rhombus;whiteSpace=wrap;html=1;" vertex="1" parent="1">
          <mxGeometry x="460" y="200" width="80" height="80" as="geometry" />
        </mxCell>
        <mxCell id="S7LjPsqsbYEkWPQuBM5x-27" value="" style="edgeStyle=orthogonalEdgeStyle;rounded=0;orthogonalLoop=1;jettySize=auto;html=1;" edge="1" parent="1" source="S7LjPsqsbYEkWPQuBM5x-24" target="S7LjPsqsbYEkWPQuBM5x-26">
          <mxGeometry relative="1" as="geometry" />
        </mxCell>
        <mxCell id="S7LjPsqsbYEkWPQuBM5x-24" value="적과 마주침" style="ellipse;whiteSpace=wrap;html=1;" vertex="1" parent="1">
          <mxGeometry x="300" y="200" width="80" height="80" as="geometry" />
        </mxCell>
        <mxCell id="S7LjPsqsbYEkWPQuBM5x-34" value="" style="edgeStyle=orthogonalEdgeStyle;rounded=0;orthogonalLoop=1;jettySize=auto;html=1;" edge="1" parent="1" source="S7LjPsqsbYEkWPQuBM5x-26" target="S7LjPsqsbYEkWPQuBM5x-33">
          <mxGeometry relative="1" as="geometry" />
        </mxCell>
        <mxCell id="S7LjPsqsbYEkWPQuBM5x-26" value="전투 메뉴로 전환" style="ellipse;whiteSpace=wrap;html=1;" vertex="1" parent="1">
          <mxGeometry x="300" y="360" width="80" height="80" as="geometry" />
        </mxCell>
        <mxCell id="S7LjPsqsbYEkWPQuBM5x-36" value="" style="edgeStyle=orthogonalEdgeStyle;rounded=0;orthogonalLoop=1;jettySize=auto;html=1;" edge="1" parent="1" source="S7LjPsqsbYEkWPQuBM5x-28" target="S7LjPsqsbYEkWPQuBM5x-35">
          <mxGeometry relative="1" as="geometry" />
        </mxCell>
        <mxCell id="S7LjPsqsbYEkWPQuBM5x-28" value="주인공의 체력 회복" style="ellipse;whiteSpace=wrap;html=1;" vertex="1" parent="1">
          <mxGeometry x="460" y="360" width="80" height="80" as="geometry" />
        </mxCell>
        <mxCell id="S7LjPsqsbYEkWPQuBM5x-38" value="" style="edgeStyle=orthogonalEdgeStyle;rounded=0;orthogonalLoop=1;jettySize=auto;html=1;" edge="1" parent="1" source="S7LjPsqsbYEkWPQuBM5x-30" target="S7LjPsqsbYEkWPQuBM5x-37">
          <mxGeometry relative="1" as="geometry" />
        </mxCell>
        <mxCell id="S7LjPsqsbYEkWPQuBM5x-30" value="게임 종료" style="ellipse;whiteSpace=wrap;html=1;" vertex="1" parent="1">
          <mxGeometry x="620" y="200" width="80" height="80" as="geometry" />
        </mxCell>
        <mxCell id="S7LjPsqsbYEkWPQuBM5x-33" value="대기" style="whiteSpace=wrap;html=1;" vertex="1" parent="1">
          <mxGeometry x="280" y="530" width="120" height="60" as="geometry" />
        </mxCell>
        <mxCell id="S7LjPsqsbYEkWPQuBM5x-35" value="대기" style="whiteSpace=wrap;html=1;" vertex="1" parent="1">
          <mxGeometry x="440" y="530" width="120" height="60" as="geometry" />
        </mxCell>
        <mxCell id="S7LjPsqsbYEkWPQuBM5x-37" value="" style="shape=waypoint;sketch=0;size=6;pointerEvents=1;points=[];fillColor=default;resizable=0;rotatable=0;perimeter=centerPerimeter;snapToPoint=1;" vertex="1" parent="1">
          <mxGeometry x="810" y="230" width="20" height="20" as="geometry" />
        </mxCell>
        <mxCell id="S7LjPsqsbYEkWPQuBM5x-41" value="" style="edgeStyle=orthogonalEdgeStyle;rounded=0;orthogonalLoop=1;jettySize=auto;html=1;" edge="1" parent="1" source="S7LjPsqsbYEkWPQuBM5x-39" target="S7LjPsqsbYEkWPQuBM5x-40">
          <mxGeometry relative="1" as="geometry" />
        </mxCell>
        <mxCell id="S7LjPsqsbYEkWPQuBM5x-39" value="전투 메뉴" style="whiteSpace=wrap;html=1;aspect=fixed;" vertex="1" parent="1">
          <mxGeometry x="374" y="650" width="80" height="80" as="geometry" />
        </mxCell>
        <mxCell id="S7LjPsqsbYEkWPQuBM5x-43" value="1. 공격" style="edgeStyle=orthogonalEdgeStyle;rounded=0;orthogonalLoop=1;jettySize=auto;html=1;" edge="1" parent="1" source="S7LjPsqsbYEkWPQuBM5x-40" target="S7LjPsqsbYEkWPQuBM5x-42">
          <mxGeometry relative="1" as="geometry" />
        </mxCell>
        <mxCell id="S7LjPsqsbYEkWPQuBM5x-49" value="2. 방어" style="edgeStyle=orthogonalEdgeStyle;rounded=0;orthogonalLoop=1;jettySize=auto;html=1;" edge="1" parent="1" source="S7LjPsqsbYEkWPQuBM5x-40" target="S7LjPsqsbYEkWPQuBM5x-48">
          <mxGeometry relative="1" as="geometry" />
        </mxCell>
        <mxCell id="S7LjPsqsbYEkWPQuBM5x-54" value="3. 도망" style="edgeStyle=orthogonalEdgeStyle;rounded=0;orthogonalLoop=1;jettySize=auto;html=1;" edge="1" parent="1" source="S7LjPsqsbYEkWPQuBM5x-40" target="S7LjPsqsbYEkWPQuBM5x-53">
          <mxGeometry relative="1" as="geometry" />
        </mxCell>
        <mxCell id="S7LjPsqsbYEkWPQuBM5x-40" value="몇번인가?" style="rhombus;whiteSpace=wrap;html=1;" vertex="1" parent="1">
          <mxGeometry x="374" y="810" width="80" height="80" as="geometry" />
        </mxCell>
        <mxCell id="S7LjPsqsbYEkWPQuBM5x-45" value="" style="edgeStyle=orthogonalEdgeStyle;rounded=0;orthogonalLoop=1;jettySize=auto;html=1;" edge="1" parent="1" source="S7LjPsqsbYEkWPQuBM5x-42" target="S7LjPsqsbYEkWPQuBM5x-44">
          <mxGeometry relative="1" as="geometry" />
        </mxCell>
        <mxCell id="S7LjPsqsbYEkWPQuBM5x-42" value="내 공격력만큼 적의 체력 깎기" style="ellipse;whiteSpace=wrap;html=1;" vertex="1" parent="1">
          <mxGeometry x="214" y="810" width="80" height="80" as="geometry" />
        </mxCell>
        <mxCell id="S7LjPsqsbYEkWPQuBM5x-47" value="" style="edgeStyle=orthogonalEdgeStyle;rounded=0;orthogonalLoop=1;jettySize=auto;html=1;" edge="1" parent="1" source="S7LjPsqsbYEkWPQuBM5x-44" target="S7LjPsqsbYEkWPQuBM5x-46">
          <mxGeometry relative="1" as="geometry" />
        </mxCell>
        <mxCell id="S7LjPsqsbYEkWPQuBM5x-44" value="적의 공격력만큼 내 체력 깎기" style="ellipse;whiteSpace=wrap;html=1;" vertex="1" parent="1">
          <mxGeometry x="214" y="970" width="80" height="80" as="geometry" />
        </mxCell>
        <mxCell id="S7LjPsqsbYEkWPQuBM5x-46" value="대기" style="whiteSpace=wrap;html=1;" vertex="1" parent="1">
          <mxGeometry x="194" y="1140" width="120" height="60" as="geometry" />
        </mxCell>
        <mxCell id="S7LjPsqsbYEkWPQuBM5x-52" value="" style="edgeStyle=orthogonalEdgeStyle;rounded=0;orthogonalLoop=1;jettySize=auto;html=1;" edge="1" parent="1" source="S7LjPsqsbYEkWPQuBM5x-48" target="S7LjPsqsbYEkWPQuBM5x-44">
          <mxGeometry relative="1" as="geometry" />
        </mxCell>
        <mxCell id="S7LjPsqsbYEkWPQuBM5x-48" value="내 체력 20 회복" style="ellipse;whiteSpace=wrap;html=1;" vertex="1" parent="1">
          <mxGeometry x="374" y="970" width="80" height="80" as="geometry" />
        </mxCell>
        <mxCell id="S7LjPsqsbYEkWPQuBM5x-56" value="" style="edgeStyle=orthogonalEdgeStyle;rounded=0;orthogonalLoop=1;jettySize=auto;html=1;" edge="1" parent="1" source="S7LjPsqsbYEkWPQuBM5x-53" target="S7LjPsqsbYEkWPQuBM5x-55">
          <mxGeometry relative="1" as="geometry" />
        </mxCell>
        <mxCell id="S7LjPsqsbYEkWPQuBM5x-53" value="일반 메뉴로 이동" style="ellipse;whiteSpace=wrap;html=1;" vertex="1" parent="1">
          <mxGeometry x="534" y="810" width="80" height="80" as="geometry" />
        </mxCell>
        <mxCell id="S7LjPsqsbYEkWPQuBM5x-55" value="대기&amp;nbsp;" style="whiteSpace=wrap;html=1;" vertex="1" parent="1">
          <mxGeometry x="514" y="980" width="120" height="60" as="geometry" />
        </mxCell>
      </root>
    </mxGraphModel>
  </diagram>
</mxfile>
